<svg width="56" height="46" viewBox="0 0 56 46" fill="none" xmlns="http://www.w3.org/2000/svg">
<path d="M15 19.5C13.6193 19.5 12.5 20.6193 12.5 22C12.5 23.3807 13.6193 24.5 15 24.5V19.5ZM54.7678 23.7678C55.7441 22.7915 55.7441 21.2085 54.7678 20.2322L38.8579 4.32233C37.8816 3.34602 36.2986 3.34602 35.3223 4.32233C34.346 5.29864 34.346 6.88155 35.3223 7.85786L49.4645 22L35.3223 36.1421C34.346 37.1184 34.346 38.7014 35.3223 39.6777C36.2986 40.654 37.8816 40.654 38.8579 39.6777L54.7678 23.7678ZM15 24.5H53V19.5H15V24.5Z" fill="#9ADBFF"/>
<line x1="2.5" y1="3" x2="2.5" y2="42" stroke="#9ADBFF" stroke-width="5"/>
<path d="M29 5.5C30.3807 5.5 31.5 4.38071 31.5 3C31.5 1.61929 30.3807 0.5 29 0.5V5.5ZM0 5.5L29 5.5V0.5L0 0.5V5.5Z" fill="#9ADBFF"/>
<path d="M29 46C30.3807 46 31.5 44.8807 31.5 43.5C31.5 42.1193 30.3807 41 29 41V46ZM0 46H29V41H0V46Z" fill="#9ADBFF"/>
</svg>
