<svg width="7" height="30" viewBox="0 0 10 50" fill="none" xmlns="http://www.w3.org/2000/svg">
<path d="M0.8 25.3654C0.8 24.7321 0.95 24.2821 1.25 24.0154C1.55 23.7488 2.01667 23.6654 2.65 23.7654L5.3 24.1154C5.86667 24.1821 6.3 24.3654 6.6 24.6654C6.86667 24.9654 7 25.4154 7 26.0154V27.4654C7 28.7321 6.38333 29.2988 5.15 29.1654L2.4 28.7654C1.33333 28.5988 0.8 27.9488 0.8 26.8154V25.3654ZM0.8 13.9885C0.8 13.3551 0.95 12.9051 1.25 12.6385C1.55 12.3718 2.01667 12.2885 2.65 12.3885L5.3 12.7385C5.86667 12.8051 6.3 12.9885 6.6 13.2885C6.86667 13.5885 7 14.0385 7 14.6385V16.0885C7 17.3551 6.38333 17.9218 5.15 17.7885L2.4 17.3885C1.33333 17.2218 0.8 16.5718 0.8 15.4385V13.9885ZM0.8 2.61152C0.8 1.97819 0.95 1.52819 1.25 1.26152C1.55 0.994856 2.01667 0.911523 2.65 1.01152L5.3 1.36152C5.86667 1.42819 6.3 1.61152 6.6 1.91152C6.86667 2.21152 7 2.66152 7 3.26152V4.71152C7 5.97819 6.38333 6.54486 5.15 6.41152L2.4 6.01152C1.33333 5.84486 0.8 5.19486 0.8 4.06152V2.61152Z" fill="#E2E2E2"/>
</svg>
